<svg width="18" height="23" viewBox="0 0 18 23" fill="none" xmlns="http://www.w3.org/2000/svg">
<path d="M15.412 2.29404C16.8131 3.82094 17.5137 5.69317 17.5137 7.91321C17.5137 10.1308 16.8131 12.008 15.412 13.5472C14.0109 15.0839 12.23 15.8511 10.0691 15.8511C8.08588 15.8511 6.45045 15.2282 5.1653 13.9813V22.9996H0V0.439075H5.10609V2.13124H5.1653C6.45045 0.710413 8.08588 0 10.0691 0C12.23 0 14.0109 0.764681 15.412 2.29404ZM11.0213 10.449C11.6922 9.78791 12.0277 8.94307 12.0277 7.91321C12.0277 6.88089 11.7046 6.03851 11.0607 5.3873C10.4194 4.73362 9.57331 4.40555 8.52496 4.40555C7.51114 4.40555 6.67986 4.73855 6.02865 5.4021C5.37743 6.06318 5.05183 6.89939 5.05183 7.90828C5.05183 8.94183 5.3873 9.78791 6.05825 10.449C6.72919 11.1101 7.55061 11.4406 8.52496 11.4406C9.51781 11.4406 10.3503 11.1101 11.0213 10.449Z" fill="#1F1515"/>
</svg>
