<svg width="18" height="16" viewBox="0 0 18 16" fill="none" xmlns="http://www.w3.org/2000/svg">
<path d="M2.50291 13.6671C0.833478 12.1831 0 10.2812 0 7.95885C0 5.63772 0.866866 3.7321 2.60184 2.24074C4.33928 0.746915 6.48604 0 9.04212 0C11.5611 0 13.6831 0.751861 15.4082 2.25558C17.1358 3.75683 18.0002 5.65751 18.0002 7.95885C18.0002 10.2614 17.1555 12.1584 15.4676 13.6522C13.7784 15.146 11.6365 15.893 9.04212 15.893C6.35125 15.893 4.1711 15.151 2.50291 13.6671ZM6.50954 5.41637C5.83682 6.07919 5.50046 6.92875 5.50046 7.96379C5.50046 8.99636 5.82198 9.8385 6.46502 10.4914C7.11053 11.1444 7.96132 11.4708 9.01739 11.4708C10.0289 11.4708 10.8624 11.1394 11.5153 10.4766C12.1708 9.81377 12.4997 8.97534 12.4997 7.95885C12.4997 6.92751 12.1609 6.07919 11.4857 5.41637C10.813 4.75107 9.98937 4.41718 9.01739 4.41718C8.02068 4.41718 7.18473 4.75107 6.50954 5.41637Z" fill="#1F1515"/>
</svg>
