<svg width="256" height="156" viewBox="0 0 256 156" fill="none" xmlns="http://www.w3.org/2000/svg">
<g id="New Logos Opfolio SVG 1">
<g id="Group">
<g id="Group_2">
<g id="Group_3">
<path id="Vector" d="M19.9919 91.2344C16.3966 88.0386 14.6016 83.9426 14.6016 78.9411C14.6016 73.9423 16.4685 69.8383 20.2049 66.6265C23.9467 63.4094 28.57 61.8008 34.0748 61.8008C39.4998 61.8008 44.0698 63.42 47.785 66.6584C51.5055 69.8916 53.367 73.9849 53.367 78.9411C53.367 83.9 51.5481 87.9853 47.9128 91.2024C44.2749 94.4196 39.6622 96.0282 34.0748 96.0282C28.2797 96.0282 23.5845 94.4302 19.9919 91.2344ZM28.6206 73.4656C27.1718 74.893 26.4475 76.7227 26.4475 78.9518C26.4475 81.1755 27.1399 82.9892 28.5247 84.3953C29.9149 85.8015 31.7472 86.5046 34.0216 86.5046C36.2001 86.5046 37.9951 85.7908 39.4012 84.3634C40.8127 82.9359 41.5211 81.1302 41.5211 78.9411C41.5211 76.72 40.7914 74.893 39.3373 73.4656C37.8885 72.0328 36.1149 71.3137 34.0216 71.3137C31.875 71.3137 30.0747 72.0328 28.6206 73.4656Z" fill="#1F1515"/>
</g>
</g>
</g>
<g id="Group_4">
<g id="Group_5">
<g id="Group_6">
<path id="Vector_2" d="M88.709 66.7543C91.7344 70.0514 93.2471 74.0941 93.2471 78.8878C93.2471 83.6763 91.7344 87.7296 88.709 91.0533C85.6836 94.3717 81.8379 96.0282 77.172 96.0282C72.8896 96.0282 69.3582 94.6832 66.5831 91.9908V111.464H55.4297V62.7489H66.4553V66.4028H66.5831C69.3582 63.3348 72.8896 61.8008 77.172 61.8008C81.8379 61.8008 85.6836 63.452 88.709 66.7543ZM79.228 84.3634C80.6768 82.9359 81.4012 81.1116 81.4012 78.8878C81.4012 76.6587 80.7034 74.8398 79.3132 73.4336C77.9284 72.0221 76.1014 71.3137 73.8377 71.3137C71.6485 71.3137 69.8535 72.0328 68.4474 73.4656C67.0412 74.893 66.3381 76.6987 66.3381 78.8772C66.3381 81.1089 67.0625 82.9359 68.5113 84.3634C69.9601 85.7908 71.7338 86.5046 73.8377 86.5046C75.9816 86.5046 77.7792 85.7908 79.228 84.3634Z" fill="#1F1515"/>
</g>
</g>
</g>
<g id="Group_7">
<g id="Group_8">
<g id="Group_9">
<path id="Vector_3" d="M97.2206 62.7518V55.8808C97.2552 51.0444 98.3871 47.1775 100.619 44.2799C102.848 41.3824 105.937 39.9336 109.887 39.9336C111.57 39.9336 113.173 40.1759 114.702 40.658C116.236 41.1427 117.338 41.6354 118.015 42.1387L119.091 42.8311L115.181 50.7036C114.172 50.123 113.056 49.83 111.836 49.83C110.451 49.83 109.527 50.3041 109.066 51.2468C108.603 52.1923 108.374 53.8408 108.374 56.1897V62.7518H115.81V71.2528H108.374V95.083H97.2206V71.2528H92.5547V62.7518H97.2206Z" fill="#1F1515"/>
</g>
</g>
</g>
<g id="Group_10">
<g id="Group_11">
<g id="Group_12">
<path id="Vector_4" d="M118.875 91.2344C115.279 88.0386 113.484 83.9426 113.484 78.9411C113.484 73.9423 115.351 69.8383 119.088 66.6265C122.83 63.4094 127.453 61.8008 132.958 61.8008C138.383 61.8008 142.953 63.42 146.668 66.6584C150.388 69.8916 152.25 73.9849 152.25 78.9411C152.25 83.9 150.431 87.9853 146.796 91.2024C143.158 94.4196 138.545 96.0282 132.958 96.0282C127.163 96.0282 122.467 94.4302 118.875 91.2344ZM127.503 73.4656C126.055 74.893 125.33 76.7227 125.33 78.9518C125.33 81.1755 126.023 82.9892 127.408 84.3953C128.798 85.8015 130.63 86.5046 132.904 86.5046C135.083 86.5046 136.878 85.7908 138.284 84.3634C139.696 82.9359 140.404 81.1302 140.404 78.9411C140.404 76.72 139.674 74.893 138.22 73.4656C136.771 72.0328 134.998 71.3137 132.904 71.3137C130.758 71.3137 128.958 72.0328 127.503 73.4656Z" fill="#1F1515"/>
</g>
</g>
</g>
<g id="Group_13">
<g id="Group_14">
<g id="Group_15">
<path id="Vector_5" d="M154.305 95.0792V40.8672H165.458V95.0792H154.305Z" fill="#1F1515"/>
</g>
</g>
</g>
<g id="Group_16">
<g id="Group_17">
<g id="Group_18">
<path id="Vector_6" d="M170.949 44.7257C172.254 43.4208 173.81 42.7656 175.615 42.7656C177.426 42.7656 178.982 43.4208 180.281 44.7257C181.586 46.0254 182.241 47.5807 182.241 49.3917C182.241 51.1973 181.586 52.7473 180.281 54.0469C178.982 55.3466 177.426 55.9964 175.615 55.9964C173.81 55.9964 172.254 55.3466 170.949 54.0469C169.65 52.7473 169 51.1973 169 49.3917C169 47.5807 169.65 46.0254 170.949 44.7257ZM169.884 62.7502V95.0814H181.038V62.7502H169.884Z" fill="#1F1515"/>
</g>
</g>
</g>
<g id="Group_19">
<g id="Group_20">
<g id="Group_21">
<path id="Vector_7" d="M188.836 91.2344C185.24 88.0386 183.445 83.9426 183.445 78.9411C183.445 73.9423 185.312 69.8383 189.049 66.6265C192.79 63.4094 197.414 61.8008 202.919 61.8008C208.344 61.8008 212.914 63.42 216.629 66.6584C220.349 69.8916 222.211 73.9849 222.211 78.9411C222.211 83.9 220.392 87.9853 216.757 91.2024C213.119 94.4196 208.506 96.0282 202.919 96.0282C197.123 96.0282 192.428 94.4302 188.836 91.2344ZM197.464 73.4656C196.016 74.893 195.291 76.7227 195.291 78.9518C195.291 81.1755 195.984 82.9892 197.368 84.3953C198.759 85.8015 200.591 86.5046 202.865 86.5046C205.044 86.5046 206.839 85.7908 208.245 84.3634C209.656 82.9359 210.365 81.1302 210.365 78.9411C210.365 76.72 209.635 74.893 208.181 73.4656C206.732 72.0328 204.959 71.3137 202.865 71.3137C200.719 71.3137 198.918 72.0328 197.464 73.4656Z" fill="#1F1515"/>
</g>
</g>
</g>
<g id="Group_22">
<g id="Group_23">
<g id="Group_24">
<path id="Vector_8" d="M231.448 81.5898C233.464 81.5898 235.177 82.2929 236.583 83.6991C237.989 85.1053 238.692 86.8177 238.692 88.8337C238.692 90.8098 237.989 92.5036 236.583 93.9151C235.177 95.3213 233.464 96.0244 231.448 96.0244C229.467 96.0244 227.773 95.3213 226.367 93.9151C224.961 92.5036 224.258 90.8098 224.258 88.8337C224.258 86.8177 224.961 85.1053 226.367 83.6991C227.773 82.2929 229.467 81.5898 231.448 81.5898Z" fill="#F5C324"/>
</g>
</g>
</g>
</g>
</svg>
