<svg width="13" height="26" viewBox="0 0 13 26" fill="none" xmlns="http://www.w3.org/2000/svg">
<path d="M2.19977 10.7578V7.51839C2.21609 5.23826 2.74971 3.41517 3.80188 2.0491C4.8528 0.683033 6.30927 0 8.17129 0C8.96481 0 9.72067 0.114257 10.4414 0.341517C11.1646 0.570031 11.6844 0.802313 12.0033 1.03962L12.5106 1.36607L10.6674 5.07755C10.1915 4.80383 9.66542 4.66572 9.09037 4.66572C8.43747 4.66572 8.00179 4.88921 7.78457 5.33369C7.5661 5.77942 7.45812 6.55662 7.45812 7.66404V10.7578H10.9637V14.7656H7.45812V26.0005H2.19977V14.7656H0V10.7578H2.19977Z" fill="#1F1515"/>
</svg>
